<?xml version="1.0" encoding="utf-8"?>

<!DOCTYPE svg PUBLIC "-//W3C//DTD SVG 1.1//EN" "http://www.w3.org/Graphics/SVG/1.1/DTD/svg11.dtd">
<!-- Uploaded to: SVG Repo, www.svgrepo.com, Generator: SVG Repo Mixer Tools -->
<svg height="800px" width="800px" version="1.1" id="_x32_" xmlns="http://www.w3.org/2000/svg" xmlns:xlink="http://www.w3.org/1999/xlink" 
	 viewBox="0 0 512 512"  xml:space="preserve">
<style type="text/css">
	.st0{fill:#000000;}
</style>
<g>
	<path class="st0" d="M410.431,63.966C370.965,24.479,316.251-0.015,256,0c-60.237-0.015-114.958,24.479-154.416,63.966
		c-39.487,39.458-63.98,94.18-63.966,154.416c-0.014,57.076,21.986,109.21,57.881,148.053
		c31.947,34.609,75.062,58.846,123.588,67.118v58.59c0,7.724,4.469,14.738,11.468,18c7,3.262,15.257,2.164,21.159-2.802
		l144.725-121.715l-0.036,0.022c27.36-22.878,47.239-48.146,59.914-76.195c12.711-28.041,18.087-58.437,18.065-91.071
		C474.397,158.146,449.91,103.424,410.431,63.966z M420.151,293.078c-10.006,22.029-25.562,42.266-49.237,62.13l-0.029,0.029
		l-112.091,94.267v-33.373c0-10.304-7.906-18.913-18.167-19.784c-45.741-3.898-86.515-24.991-115.953-56.85
		C95.258,307.61,77.339,265.19,77.325,218.382c0.014-49.404,19.974-93.945,52.338-126.346C162.054,59.672,206.603,39.714,256,39.706
		c49.404,0.008,93.945,19.966,126.345,52.33c32.371,32.4,52.316,76.942,52.33,126.346
		C434.661,246.781,430.111,271.026,420.151,293.078z"/>
	<path class="st0" d="M151.771,191.906c-14.62,0-26.476,11.856-26.476,26.476c0,14.62,11.856,26.476,26.476,26.476
		c14.613,0,26.469-11.856,26.469-26.476C178.24,203.762,166.385,191.906,151.771,191.906z"/>
	<path class="st0" d="M256,191.906c-14.613,0-26.469,11.856-26.469,26.476c0,14.62,11.856,26.476,26.469,26.476
		c14.62,0,26.476-11.856,26.476-26.476C282.476,203.762,270.62,191.906,256,191.906z"/>
	<path class="st0" d="M360.236,191.906c-14.62,0-26.469,11.856-26.469,26.476c0,14.62,11.848,26.476,26.469,26.476
		c14.62,0,26.476-11.856,26.476-26.476C386.712,203.762,374.856,191.906,360.236,191.906z"/>
</g>
</svg>