<svg version="1.1" id="Layer_1" xmlns="http://www.w3.org/2000/svg" xmlns:xlink="http://www.w3.org/1999/xlink" x="0px" y="0px"
	 width="100%" viewBox="0 0 250 223" enable-background="new 0 0 250 223" xml:space="preserve">
<path fill="#FEFEFD" opacity="1.000000" stroke="none" 
	d="
M1.000000,86.000000 
	C1.000000,58.333340 1.039034,31.166527 0.934876,4.000265 
	C0.925288,1.499624 1.500738,0.934806 4.000043,0.937147 
	C85.333290,1.013325 166.666641,1.013321 247.999878,0.937161 
	C250.499008,0.934821 251.065720,1.500520 251.063019,4.000008 
	C250.985031,76.333244 250.985046,148.666595 251.062988,220.999832 
	C251.065689,223.498901 250.499588,224.065216 248.000046,224.062866 
	C166.666794,223.986664 85.333405,223.966217 4.000361,224.117172 
	C0.561087,224.123566 0.975091,222.681427 0.976612,220.500137 
	C1.007743,175.833435 1.000000,131.166718 1.000000,86.000000 
z"/>
<path fill="#6C2921" opacity="1.000000" stroke="none" 
	d="
M169.448914,209.668289 
	C169.062988,210.424118 168.934982,210.782425 168.600677,211.337906 
	C165.865112,213.445740 163.595200,215.612473 159.950516,215.468933 
	C153.767456,215.225388 149.876816,211.713120 149.584961,205.104935 
	C149.240356,197.302170 149.496201,189.484863 149.469925,181.673935 
	C149.445328,174.361267 149.533371,167.047791 149.439148,159.735992 
	C149.358597,153.485764 148.473434,152.587418 142.094849,152.561035 
	C125.142838,152.490921 108.190338,152.499023 91.238258,152.556183 
	C84.465469,152.579025 83.803741,153.280258 83.540001,159.887436 
	C83.480270,161.383896 83.422905,162.875931 83.012138,164.758713 
	C80.504578,167.817490 79.321732,166.011871 78.937790,163.812958 
	C78.315544,160.249237 76.838852,157.836044 73.296997,156.359222 
	C70.872520,155.348282 70.125389,152.276093 68.203255,150.379807 
	C64.450790,146.677795 61.330868,142.395554 56.945919,139.245651 
	C54.837914,137.731384 54.222778,135.104492 56.390339,132.359665 
	C61.243465,131.533279 62.558422,128.886734 62.510311,124.525345 
	C62.334499,108.588264 62.429333,92.647789 62.449032,76.708618 
	C62.452103,74.224174 62.277782,71.721992 63.085663,68.856339 
	C64.541962,66.536354 66.268517,66.012695 68.424461,66.775658 
	C73.858307,68.698631 79.314484,76.137489 79.402489,82.114204 
	C79.553581,92.374557 79.412262,102.637436 79.470787,112.898964 
	C79.485756,115.522812 79.251465,118.235985 81.427307,120.726906 
	C82.444832,121.479179 82.937431,122.133194 83.400635,123.272781 
	C83.178398,131.297913 84.190437,132.233047 92.044342,131.128784 
	C103.773064,131.878952 115.113403,131.200897 126.876465,131.577621 
	C130.164581,131.546432 133.010666,131.453735 136.262863,131.116913 
	C139.603821,131.864304 142.639725,131.347107 145.952835,132.040527 
	C150.593384,135.850983 154.592178,139.878296 158.153137,144.194717 
	C161.321014,148.034653 164.913376,150.934158 169.570465,153.274857 
	C170.860016,157.089035 170.303101,160.649506 170.283142,164.592957 
	C170.217194,165.275620 170.178070,165.547012 170.048676,166.215179 
	C169.743622,167.395950 169.603439,168.181259 170.048584,169.392883 
	C170.544693,182.970734 171.436234,196.136444 169.448914,209.668289 
z"/>
<path fill="#DF8642" opacity="1.000000" stroke="none" 
	d="
M144.307068,209.663574 
	C123.925621,209.981216 103.861961,209.964218 83.323883,209.883179 
	C81.643616,208.568375 81.713211,206.960754 81.588043,204.932312 
	C81.410042,192.296478 81.200638,180.128738 81.802422,167.521027 
	C82.837479,161.319794 86.789818,158.548325 92.355423,156.841797 
	C102.423157,156.411057 112.052193,156.699997 121.679016,156.593506 
	C123.830048,156.569702 126.004723,156.751694 128.521698,155.908325 
	C138.411636,155.606537 145.432312,161.781509 146.039520,171.301437 
	C144.965958,174.616013 145.359879,177.495209 146.196152,180.779633 
	C146.320282,182.041412 146.272171,182.888367 146.133423,184.167007 
	C144.699066,191.016281 145.680847,197.514999 145.407333,204.420929 
	C145.479660,206.415817 145.391098,207.932434 144.307068,209.663574 
z"/>
<path fill="#DA6E59" opacity="1.000000" stroke="none" 
	d="
M168.879150,167.151489 
	C169.103989,166.924179 169.222290,166.703415 169.138428,166.610413 
	C170.587662,160.895493 174.461411,157.633408 180.218948,155.787430 
	C181.784683,155.620438 182.945023,155.653290 184.555649,155.471725 
	C194.299133,155.352478 203.582123,155.386307 212.864929,155.411423 
	C215.167847,155.417648 217.536179,155.216415 219.882721,156.992004 
	C220.209427,164.878372 220.535858,172.367477 220.272766,179.835815 
	C219.693573,196.275635 206.091751,209.556305 189.556931,210.007172 
	C183.074982,210.183929 176.584747,210.056473 169.644638,210.066696 
	C169.138046,196.342010 169.085098,182.618210 168.980286,168.425461 
	C168.837036,167.763947 168.745667,167.571381 168.879150,167.151489 
z"/>
<path fill="#DE8644" opacity="1.000000" stroke="none" 
	d="
M219.844574,69.786797 
	C220.256592,90.637184 220.302414,111.185005 220.307220,132.175873 
	C217.890640,135.522385 214.563156,134.311661 211.598984,134.567368 
	C209.819962,134.720810 208.013397,134.651443 205.743073,134.515793 
	C199.006073,134.649857 192.745773,134.543335 186.031021,134.492188 
	C183.505920,134.421829 181.398529,134.619644 179.224121,133.168488 
	C178.849609,130.803253 180.561905,131.052200 181.717300,130.839417 
	C192.632431,128.829300 199.163635,122.023552 200.667084,110.975746 
	C200.779251,110.151604 200.826324,109.318092 201.032166,108.109436 
	C202.036514,103.569984 201.686844,99.386559 201.275391,94.831367 
	C200.333221,85.527061 196.791840,78.054520 189.522949,72.526062 
	C188.558304,71.792381 187.165726,70.899773 189.122589,69.205368 
	C199.510605,68.329132 209.517288,67.482315 219.844574,69.786797 
z"/>
<path fill="#69291F" opacity="1.000000" stroke="none" 
	d="
M82.683243,165.726074 
	C82.811378,178.681763 82.724953,191.383926 82.500671,204.531677 
	C81.500565,205.887634 80.470444,205.910370 79.041412,205.324036 
	C77.762230,203.819763 77.396164,202.211258 77.756767,200.829361 
	C79.250534,195.104889 73.712914,192.512207 72.318039,188.108597 
	C72.220047,187.799240 71.860367,187.517166 71.561996,187.541092 
	C65.554283,188.022919 65.589134,184.389847 66.458633,180.131149 
	C66.819466,178.363846 65.592720,177.399445 64.150352,176.132935 
	C61.370632,170.786133 62.740231,165.395325 62.556034,160.168732 
	C62.298786,152.868988 62.171780,152.552979 55.021004,152.504028 
	C48.229286,152.457550 41.433643,152.652161 34.646275,152.431564 
	C26.145845,152.155258 22.120575,147.375092 22.964312,138.405029 
	C25.125240,134.090546 28.725616,132.900970 32.829391,132.813919 
	C37.408272,132.716797 41.989983,132.753235 46.989326,132.842728 
	C49.998192,132.462250 52.522572,131.119171 55.623329,132.683945 
	C55.770855,136.103241 56.783577,138.253281 59.675285,139.961136 
	C65.216415,143.233795 68.445221,148.847809 72.388718,153.712799 
	C72.802628,154.223419 73.072861,155.302261 73.451843,155.322311 
	C80.092087,155.673691 79.585907,160.964706 80.501099,165.298889 
	C80.548996,165.525681 81.014587,165.664276 81.663956,165.912888 
	C82.184357,165.812088 82.326523,165.642319 82.683243,165.726074 
z"/>
<path fill="#6C2A22" opacity="1.000000" stroke="none" 
	d="
M82.489311,121.617867 
	C77.960579,122.122246 78.025848,119.060677 78.016479,116.196716 
	C77.978035,104.439819 78.044876,92.682465 77.981171,80.925781 
	C77.948746,74.941978 69.884689,67.098709 64.440079,67.960556 
	C61.840977,65.174896 58.868881,64.385956 55.337337,64.461021 
	C48.379929,64.608902 41.414734,64.612885 34.455841,64.466858 
	C24.807117,64.264366 21.071110,59.179050 23.775249,49.415962 
	C26.021919,46.146225 29.094761,45.526794 32.594391,45.252373 
	C33.090141,45.843586 32.999912,46.796623 34.019077,45.671879 
	C38.255230,45.283642 42.449650,45.223980 46.967110,45.469830 
	C52.154587,43.375687 57.620506,43.983414 63.096527,42.564873 
	C65.611938,41.902966 67.445442,42.645622 69.001068,43.961693 
	C71.652473,46.204811 74.164665,48.621693 77.817383,49.147594 
	C78.136040,49.193470 78.604515,49.365520 78.663734,49.607208 
	C79.799683,54.243408 85.395866,56.494904 85.165550,62.216164 
	C84.413071,66.702034 82.871475,70.722626 83.917732,75.373184 
	C83.891808,75.996719 83.860237,76.245438 83.732643,76.857910 
	C82.857811,78.862228 82.590775,80.549683 83.248245,82.730591 
	C83.847160,94.554298 83.493835,105.967285 83.521622,117.377945 
	C83.524857,118.704292 83.368683,120.022255 82.489311,121.617867 
z"/>
<path fill="#6E2E26" opacity="1.000000" stroke="none" 
	d="
M84.336624,63.370613 
	C84.201187,60.165749 81.872467,58.226040 81.098213,56.131184 
	C78.986671,50.418060 73.231133,50.175213 70.038574,46.543049 
	C68.602715,44.909485 66.910538,43.648510 64.424225,43.032604 
	C62.936882,42.069111 62.627861,40.752857 62.587738,39.416752 
	C62.392906,32.928856 62.018646,26.411587 62.744400,19.960148 
	C63.674801,11.689476 69.881439,8.029224 78.229721,10.912223 
	C82.101898,13.504282 82.320457,17.169851 82.505035,20.834965 
	C82.762802,25.953239 82.033798,31.099064 82.928940,36.613174 
	C82.616379,42.038177 85.571709,44.077183 90.341324,44.819160 
	C90.694031,44.851360 90.768044,44.731926 90.836380,44.748203 
	C91.011665,45.119652 91.247139,45.332703 91.796921,45.238274 
	C95.352318,45.096504 98.721947,45.120102 102.541748,45.232555 
	C102.883263,48.030613 104.251663,48.658432 106.844437,48.886776 
	C113.872520,49.505753 120.823860,56.755905 120.352371,62.995361 
	C119.522408,63.704300 118.831146,63.839001 117.745560,63.731361 
	C115.655228,62.265388 113.988625,62.781643 111.967033,63.978725 
	C102.616165,63.782501 93.608353,65.565750 84.336624,63.370613 
z"/>
<path fill="#4F1308" opacity="1.000000" stroke="none" 
	d="
M83.012489,165.652466 
	C82.897797,165.979614 82.469513,165.980530 82.255859,165.981186 
	C82.036423,162.656052 82.037888,159.330246 82.022812,156.004501 
	C82.008163,152.771667 83.528778,151.007217 86.835510,151.005905 
	C106.624474,150.998123 126.413437,150.993668 146.202393,151.010086 
	C150.259125,151.013458 151.025925,153.602936 151.012161,157.028442 
	C150.951996,171.994659 151.000717,186.961273 150.977066,201.927689 
	C150.970200,206.269455 150.442062,210.821411 155.376099,213.149765 
	C160.023010,215.342651 164.144028,213.825317 168.204346,211.294830 
	C166.874069,217.201477 162.902588,219.946518 157.319992,220.403168 
	C151.766266,220.857407 147.708130,217.892929 144.927689,211.459854 
	C144.650711,210.905289 144.395096,210.697159 144.064362,210.243607 
	C144.080856,208.585587 144.172440,207.172989 144.381073,205.351929 
	C145.786530,198.130814 144.361191,191.212265 144.987640,184.090775 
	C144.616501,183.147720 144.557892,182.499847 144.598724,181.538971 
	C145.969971,178.354904 144.625275,175.441071 144.737518,172.156464 
	C143.777893,162.360641 139.878510,158.284943 130.560303,157.343124 
	C126.517113,156.086258 122.786942,157.097198 119.094551,157.073532 
	C110.349121,157.017456 101.591881,156.611023 92.445267,157.532349 
	C88.262512,159.325226 84.927902,161.423340 83.012489,165.652466 
z"/>
<path fill="#4A110A" opacity="1.000000" stroke="none" 
	d="
M22.679062,138.183289 
	C23.258808,138.345367 23.752396,138.694656 23.823620,139.115433 
	C25.648266,149.894730 26.939314,151.000320 37.833183,150.999893 
	C44.785473,150.999634 51.744537,151.185074 58.687515,150.930832 
	C62.884888,150.777130 64.106750,152.430252 64.107857,156.459946 
	C64.109573,162.712280 63.289951,169.011002 64.793701,175.613312 
	C66.188789,177.349594 66.232170,178.950546 66.030624,180.656418 
	C65.056244,188.903534 65.345886,197.158905 66.019028,205.801025 
	C66.453094,209.544128 67.985283,211.920944 71.837418,212.667435 
	C73.835991,212.764130 75.457474,212.640884 77.356033,211.899170 
	C78.664421,211.454651 79.633728,211.230042 80.893051,211.909912 
	C79.328651,217.992493 74.447861,220.998276 68.176254,220.179626 
	C62.222725,219.402496 57.783619,214.646805 57.684891,208.205185 
	C57.496872,195.937317 57.661755,183.664444 57.602699,171.394043 
	C57.566158,163.801697 54.896664,160.223618 47.458031,157.620087 
	C41.828583,155.379272 36.266010,156.974121 30.414680,156.725891 
	C21.265684,154.419952 18.272760,147.149429 22.679062,138.183289 
z"/>
<path fill="#4B1209" opacity="1.000000" stroke="none" 
	d="
M23.709364,49.209297 
	C23.999250,50.695034 23.959913,52.361458 23.989485,54.026661 
	C24.095747,60.010448 26.912682,62.940201 32.858521,62.993431 
	C41.689610,63.072491 50.522594,63.079311 59.353313,62.982944 
	C62.369804,62.950024 64.245026,63.796288 64.071945,67.585373 
	C64.074852,87.275391 64.047523,106.553482 64.022156,125.831581 
	C64.012779,132.952316 64.014877,132.952316 56.439949,133.008575 
	C53.463120,132.977448 50.924892,132.936905 47.897430,132.925140 
	C55.017036,130.254288 58.165558,124.828560 57.664188,116.851524 
	C57.373764,112.230804 57.634724,107.575439 57.776203,102.484390 
	C59.123699,94.507202 58.493057,86.954475 57.797150,79.270309 
	C54.779144,72.421623 49.923119,69.375015 42.729923,69.856674 
	C39.933681,70.043922 37.112583,69.822220 34.305729,69.896812 
	C28.896103,70.040596 24.548578,68.101494 21.935022,63.259335 
	C19.308918,58.393932 20.040037,53.706894 23.709364,49.209297 
z"/>
<path fill="#73362E" opacity="1.000000" stroke="none" 
	d="
M118.824158,45.714539 
	C123.998886,45.198112 129.079956,45.070007 134.583954,44.981075 
	C135.479004,45.098370 135.912308,45.270599 136.559891,45.790482 
	C145.743744,53.225815 153.754364,61.348530 161.284027,69.978294 
	C163.164276,72.133247 165.651657,73.533287 168.902313,74.117729 
	C169.451462,74.365623 169.658676,74.495140 170.074493,74.930084 
	C167.995026,81.240936 165.182281,87.023216 162.435150,93.188446 
	C159.759598,94.187004 158.035828,92.860672 156.400787,91.526123 
	C154.849609,90.260025 153.130371,89.429405 150.872009,88.725151 
	C150.063156,88.217667 149.746429,87.788643 149.509735,86.852036 
	C149.683945,81.000542 149.454178,75.559380 149.520538,70.119942 
	C149.565582,66.425850 147.750809,64.725716 144.142929,64.523285 
	C139.867874,64.283432 135.563660,64.866898 130.926895,63.902664 
	C127.887749,58.573338 124.420647,54.072365 119.769730,50.484531 
	C118.399620,49.427586 117.659286,47.897999 118.824158,45.714539 
z"/>
<path fill="#7D4338" opacity="1.000000" stroke="none" 
	d="
M178.593872,45.237782 
	C180.766205,45.179867 182.596466,45.176521 184.805023,45.257553 
	C187.344620,49.438999 190.354614,52.879910 193.499191,56.232635 
	C195.360306,58.216934 196.906036,60.371132 194.817505,63.493359 
	C190.028290,65.026810 185.512939,64.446045 180.623383,64.120934 
	C174.465881,53.768932 165.047180,46.839352 157.103333,38.557934 
	C155.011841,36.377579 152.154175,35.160164 150.188080,32.341713 
	C149.364304,27.294552 149.123672,22.614893 150.443817,17.615223 
	C154.792953,15.894370 157.118622,18.766817 159.172363,21.348425 
	C161.687515,24.510042 164.524200,27.020884 168.553650,28.753227 
	C168.919067,30.730013 169.002487,32.452259 169.015930,34.600937 
	C169.234146,40.999878 171.916504,44.801929 178.593872,45.237782 
z"/>
<path fill="#51160B" opacity="1.000000" stroke="none" 
	d="
M220.180862,157.327423 
	C208.466293,157.411057 196.782166,157.423401 184.648407,157.346985 
	C183.005234,156.014450 181.608536,156.443344 179.982941,157.039642 
	C175.177307,158.831711 171.626999,161.539719 169.328430,166.269760 
	C169.027817,162.319183 169.001099,158.120956 168.959229,153.456818 
	C169.441803,149.233429 172.480453,149.564011 174.966492,149.524673 
	C183.692978,149.386536 192.423340,149.295547 201.611420,149.586914 
	C202.676758,149.585648 203.281158,149.584259 204.327423,149.586884 
	C205.922150,149.608582 207.074905,149.639252 208.645981,149.612488 
	C211.769806,149.504257 214.476532,149.642914 217.562561,149.574982 
	C224.081802,148.270020 225.886688,146.002457 225.597046,139.928528 
	C225.550934,138.961487 225.350098,137.997208 225.839752,136.754425 
	C232.314987,139.706467 232.792450,149.123657 226.881821,154.379562 
	C225.677811,155.450211 224.098679,156.098984 222.337280,156.920288 
	C221.502747,156.480881 220.967163,156.468048 220.246216,156.917938 
	C220.091873,157.157303 220.211304,157.256134 220.180862,157.327423 
z"/>
<path fill="#541709" opacity="1.000000" stroke="none" 
	d="
M178.612885,62.737236 
	C184.016068,63.040298 189.038483,63.054001 194.527130,63.049973 
	C198.601593,60.415913 202.746872,61.842926 207.099792,61.516365 
	C211.847992,61.394688 216.164230,61.808506 220.869324,61.179668 
	C221.817230,61.010914 222.357910,60.951172 223.295883,60.930111 
	C227.772949,63.055656 227.771652,63.980286 223.784027,68.017426 
	C222.865204,68.827126 221.842087,69.310402 220.514862,69.941513 
	C209.759995,70.033470 199.309235,69.977585 188.110443,69.968170 
	C187.043869,70.270638 186.685059,70.449982 185.975311,70.621307 
	C179.881683,69.393120 175.559631,72.837448 170.556961,75.159431 
	C169.996216,75.102180 169.783234,75.083519 169.250488,75.040092 
	C166.769501,71.795830 167.383820,68.339211 168.273102,64.443619 
	C171.366501,61.209930 174.673340,61.042751 178.612885,62.737236 
z"/>
<path fill="#4C130A" opacity="1.000000" stroke="none" 
	d="
M78.564453,10.732985 
	C77.339828,11.072557 76.015823,10.996411 74.691238,10.984615 
	C67.842339,10.923623 64.212440,14.281847 64.061478,21.184174 
	C63.909374,28.138559 64.036430,35.099052 64.058716,42.524521 
	C63.104092,44.962463 61.333733,45.131584 59.456066,45.015896 
	C55.673183,44.782814 51.944386,45.207603 47.762611,45.835670 
	C55.910782,42.289402 58.754055,35.663223 57.734562,26.824152 
	C57.489719,24.701347 57.747974,22.524813 57.690838,20.375223 
	C57.545177,14.895250 59.696281,10.635999 64.666870,8.240124 
	C69.625198,5.850157 74.314606,6.698853 78.564453,10.732985 
z"/>
<path fill="#5A2013" opacity="1.000000" stroke="none" 
	d="
M152.242249,16.753208 
	C149.891785,21.843441 151.494263,27.013447 151.024200,32.527466 
	C153.250427,36.899956 153.027603,40.811638 150.725159,45.053005 
	C145.981628,47.197441 141.384766,46.422661 136.420898,46.189415 
	C135.683136,45.905197 135.425583,45.719067 135.117615,45.234894 
	C140.328812,42.681011 144.103439,39.161842 144.393600,32.553875 
	C145.800613,27.143045 144.305344,21.896196 145.264252,16.413166 
	C148.300171,6.237677 157.937531,4.038307 166.127686,11.571916 
	C165.507935,12.792593 164.470520,12.839348 163.522476,12.599748 
	C158.933807,11.440049 155.509964,13.319362 152.242249,16.753208 
z"/>
<path fill="#72342A" opacity="1.000000" stroke="none" 
	d="
M225.858704,136.164597 
	C228.416397,144.549088 227.015976,147.731476 219.362396,150.920227 
	C214.708389,147.358047 210.271988,143.927078 206.528259,139.727524 
	C204.978058,137.988571 203.332077,136.268066 204.761871,133.336792 
	C209.769669,132.969635 214.542221,132.888931 219.790466,132.713562 
	C222.224457,133.425873 224.685349,133.395966 225.858704,136.164597 
z"/>
<path fill="#865245" opacity="1.000000" stroke="none" 
	d="
M222.253418,61.859550 
	C217.791168,64.202240 213.282181,62.613392 208.453903,63.067051 
	C206.074158,59.559830 203.309097,56.763424 200.707657,53.802853 
	C198.862701,51.703190 196.245071,49.605717 197.850098,45.726738 
	C201.793839,45.295460 205.637650,45.234367 209.879211,45.253181 
	C212.086044,49.784286 216.064713,52.410946 219.089981,55.841461 
	C220.568405,57.517918 222.810822,58.779541 222.253418,61.859550 
z"/>
<path fill="#703027" opacity="1.000000" stroke="none" 
	d="
M118.524399,45.243092 
	C118.758713,47.698574 120.073776,48.978321 121.732712,50.629658 
	C125.079437,53.961063 130.480637,56.078995 130.000793,62.601166 
	C127.050491,65.214424 123.909897,64.745529 120.362549,63.331383 
	C119.596649,57.638725 112.437767,50.365372 107.181458,50.012180 
	C106.034203,49.935089 104.864639,50.078087 103.732094,49.923645 
	C102.453438,49.749271 100.844254,49.557095 100.566734,48.086697 
	C100.305305,46.701504 102.576271,47.240540 102.915512,45.637707 
	C108.038269,45.267593 113.084625,45.213779 118.524399,45.243092 
z"/>
<path fill="#824A3F" opacity="1.000000" stroke="none" 
	d="
M197.499176,45.277775 
	C197.911865,49.858448 201.092224,52.447319 203.813797,55.343159 
	C205.689606,57.339108 208.497986,58.824471 207.993713,62.661156 
	C203.967484,63.051704 199.944138,63.055058 195.457092,63.045326 
	C195.561981,59.975399 193.692383,58.147301 191.766037,56.210979 
	C188.893372,53.323410 185.735977,50.562759 185.129364,45.758541 
	C189.138336,45.294289 193.093323,45.246643 197.499176,45.277775 
z"/>
<path fill="#824B3F" opacity="1.000000" stroke="none" 
	d="
M152.101227,17.168495 
	C154.848450,10.771062 157.809372,9.685338 165.819504,11.919327 
	C166.246796,11.903445 166.121887,11.983228 166.070068,11.930265 
	C166.179810,12.185190 166.401779,12.442042 166.871857,12.822231 
	C170.599823,17.651878 168.497437,23.043816 168.929749,28.551594 
	C164.727570,29.440527 161.856354,27.148905 159.859085,24.123861 
	C157.880646,21.127310 155.354004,19.075235 152.101227,17.168495 
z"/>
<path fill="#8E5F52" opacity="1.000000" stroke="none" 
	d="
M222.352203,62.122894 
	C220.573502,57.299446 215.915115,55.130592 212.971481,51.504078 
	C211.657806,49.885632 209.608719,48.719803 210.206741,45.741112 
	C213.950348,44.994865 217.621979,44.895702 221.623123,45.636009 
	C222.103821,46.012741 222.250427,46.167870 222.690521,46.195076 
	C225.896698,45.917427 226.209381,48.916969 228.089432,50.489677 
	C229.117859,55.126865 228.674881,58.986889 224.194763,61.739716 
	C223.472183,61.969231 223.064545,62.022675 222.352203,62.122894 
z"/>
<path fill="#632617" opacity="1.000000" stroke="none" 
	d="
M224.231323,61.988991 
	C226.768234,58.894993 227.713974,55.201908 227.913193,50.974442 
	C233.189377,56.226997 231.695404,63.259602 224.201355,68.293739 
	C221.846085,67.541916 222.824814,66.792450 223.925232,66.037407 
	C225.521103,64.942413 227.169464,63.851185 224.231323,61.988991 
z"/>
<path fill="#5C2419" opacity="1.000000" stroke="none" 
	d="
M178.632767,45.008675 
	C170.997925,46.376976 170.006531,45.462887 168.710144,35.282406 
	C170.661255,39.647919 173.428299,43.262096 178.632767,45.008675 
z"/>
<path fill="#521911" opacity="1.000000" stroke="none" 
	d="
M90.475204,44.554180 
	C82.196648,45.334217 81.573021,44.787304 82.656464,37.294106 
	C84.675377,40.142410 86.738991,42.936134 90.475204,44.554180 
z"/>
<path fill="#480A00" opacity="1.000000" stroke="none" 
	d="
M144.894058,16.393188 
	C146.699585,21.226950 146.357681,26.460508 144.897491,31.963217 
	C144.200775,27.066887 143.963394,21.911734 144.894058,16.393188 
z"/>
<path fill="#6B2821" opacity="1.000000" stroke="none" 
	d="
M81.131020,212.165131 
	C80.309578,212.371109 79.465637,212.554489 78.310852,212.862991 
	C76.286713,210.432419 77.496078,208.031342 78.695076,205.306793 
	C79.902176,204.998398 80.804352,204.996811 82.034668,204.986237 
	C82.495384,206.320724 82.627968,207.664169 82.805008,209.413376 
	C82.849457,209.819122 82.540970,210.027679 82.356216,210.050659 
	C81.547676,210.401535 81.495583,211.042236 81.225952,211.909912 
	C81.125877,212.201141 81.108528,212.142532 81.131020,212.165131 
z"/>
<path fill="#3D0200" opacity="1.000000" stroke="none" 
	d="
M57.365974,79.595024 
	C58.487045,79.419502 58.988438,80.211044 58.958698,81.302216 
	C58.775524,88.023903 59.566383,94.766235 58.220985,101.751434 
	C57.726704,94.707603 57.548542,87.382080 57.365974,79.595024 
z"/>
<path fill="#3A0000" opacity="1.000000" stroke="none" 
	d="
M30.459179,157.070831 
	C35.545826,155.298401 41.101357,155.660873 46.928665,157.068420 
	C41.762352,157.365662 36.332794,157.297562 30.459179,157.070831 
z"/>
<path fill="#400602" opacity="1.000000" stroke="none" 
	d="
M220.415527,157.159409 
	C220.368561,156.369644 220.816971,155.974030 221.819427,156.685120 
	C221.567810,156.986053 221.153488,157.073776 220.415527,157.159409 
z"/>
<path fill="#4A110A" opacity="1.000000" stroke="none" 
	d="
M81.395309,212.034241 
	C81.280380,211.588898 81.434891,210.976669 81.880432,210.219040 
	C82.002556,210.671555 81.833656,211.269455 81.395309,212.034241 
z"/>
<path fill="#521911" opacity="1.000000" stroke="none" 
	d="
M91.729507,44.938766 
	C91.705467,45.405891 91.425842,45.702702 90.996552,44.948524 
	C91.095261,44.777863 91.285797,44.791245 91.729507,44.938766 
z"/>
<path fill="#662018" opacity="1.000000" stroke="none" 
	d="
M33.771294,45.273491 
	C33.859085,45.756897 33.868217,46.553288 32.987640,45.616322 
	C33.096008,45.297741 33.288895,45.250706 33.771294,45.273491 
z"/>
<path fill="#865245" opacity="1.000000" stroke="none" 
	d="
M222.740387,45.950668 
	C222.746597,46.416233 222.500259,46.714607 222.035797,46.038910 
	C222.137085,45.849800 222.316940,45.841991 222.740387,45.950668 
z"/>
<path fill="#5A2013" opacity="1.000000" stroke="none" 
	d="
M167.006027,12.710001 
	C166.794037,12.776709 166.519928,12.564061 166.132034,12.114358 
	C166.326797,12.061749 166.635361,12.246198 167.006027,12.710001 
z"/>
<path fill="#DD8543" opacity="1.000000" stroke="none" 
	d="
M82.334000,122.235123 
	C82.191643,108.652611 82.178795,95.313438 82.131149,81.509369 
	C81.960709,79.833504 82.493271,78.724426 82.883095,77.306808 
	C83.137688,77.058846 83.078552,77.011719 83.065216,77.047096 
	C84.433243,71.349037 88.692070,68.934189 93.972572,68.722130 
	C103.710854,68.331055 113.473541,68.167664 123.615677,68.984238 
	C126.922279,71.569107 123.748642,72.635117 122.670273,73.602509 
	C116.413887,79.215141 113.115692,86.188507 112.106438,94.443214 
	C110.212563,109.933098 113.573494,123.155144 127.968933,132.179596 
	C115.977531,132.909134 103.850601,133.508102 91.321198,132.189529 
	C86.348656,131.683029 83.727249,129.021652 82.726288,124.394989 
	C82.749870,123.530968 82.606689,123.004715 82.334000,122.235123 
z"/>
<path fill="#6D2E25" opacity="1.000000" stroke="none" 
	d="
M203.214417,150.673615 
	C193.626495,150.972351 184.252380,150.961960 174.878601,151.012817 
	C172.966568,151.023178 170.865326,150.462357 169.152222,152.648712 
	C165.982925,153.570877 163.627655,151.967636 161.880096,150.154510 
	C156.765167,144.847717 151.985031,139.218231 147.039642,133.372543 
	C151.062378,128.051971 149.364899,122.179337 149.507889,116.246048 
	C149.197449,113.096687 149.529648,110.388306 150.727325,107.478226 
	C150.884079,106.960052 150.949463,106.756378 151.117859,106.255173 
	C151.694962,104.814972 151.861176,103.652634 151.359390,102.160248 
	C151.133713,101.264542 151.097763,100.653900 151.175934,99.734650 
	C151.379059,98.642235 151.493622,97.851723 151.162842,96.753372 
	C150.779938,95.612778 150.506271,94.770134 150.126144,93.586060 
	C149.737259,91.768127 149.651657,90.296921 150.270508,88.503281 
	C155.457703,86.559868 157.206543,92.352158 161.606079,92.962242 
	C163.504959,94.382576 163.498474,96.290054 163.349976,98.047951 
	C162.546005,107.565071 164.750748,116.332756 169.742218,124.852539 
	C170.871399,131.718246 170.871399,131.718246 176.772858,131.318024 
	C177.644119,131.301056 178.122726,131.424469 178.816528,131.929199 
	C180.609100,133.532074 182.486679,132.821075 184.605286,133.087646 
	C189.906097,138.452698 194.773117,143.822357 201.161957,147.486313 
	C202.288712,148.132492 203.571350,148.719330 203.214417,150.673615 
z"/>
<path fill="#FAF8F7" opacity="1.000000" stroke="none" 
	d="
M150.301483,88.003494 
	C150.783920,89.820396 151.115845,91.467308 151.487579,93.532738 
	C151.319580,94.087807 151.111725,94.224358 150.531998,94.348457 
	C147.982956,92.976143 147.885666,90.386246 146.687134,88.445602 
	C144.525070,84.944809 141.934875,81.744446 137.539505,81.598335 
	C132.869385,81.443108 129.710907,84.543205 127.895576,88.393211 
	C123.756042,97.172440 123.742828,106.085365 128.966553,114.490105 
	C133.291489,121.448753 141.015793,121.362518 145.603394,114.599518 
	C147.108444,112.380806 147.638763,109.699135 149.371063,107.200821 
	C150.068054,106.635941 150.548904,106.530334 151.380325,106.828613 
	C151.166107,109.506561 150.641479,111.962006 150.145126,114.729523 
	C149.193344,123.011826 145.234741,128.779587 137.332779,131.904541 
	C134.294418,132.214203 131.685059,133.170959 128.521271,132.584137 
	C115.774559,127.855591 111.734215,117.484833 110.640129,105.742210 
	C109.344429,91.835739 112.076424,79.142410 125.038162,70.461540 
	C128.291321,67.406517 131.821655,67.368896 135.409821,68.659874 
	C143.711258,71.646622 148.718994,77.543892 150.293274,86.581345 
	C150.001801,87.246689 150.003494,87.540512 150.301483,88.003494 
z"/>
<path fill="#4E160C" opacity="1.000000" stroke="none" 
	d="
M137.233093,132.215790 
	C143.278549,128.099854 147.355042,122.520668 150.001160,115.356361 
	C151.885345,119.794464 150.776001,124.697342 150.852707,129.527573 
	C150.880371,131.268707 149.458160,132.392120 147.381668,132.976044 
	C143.845932,132.719666 140.626556,133.540817 137.233093,132.215790 
z"/>
<path fill="#57180C" opacity="1.000000" stroke="none" 
	d="
M82.628555,124.330437 
	C84.264977,127.701279 86.921219,130.123016 90.604630,132.015900 
	C83.655289,134.312271 81.485207,132.385559 82.628555,124.330437 
z"/>
<path fill="#51160B" opacity="1.000000" stroke="none" 
	d="
M168.936279,167.017593 
	C169.092834,167.099396 169.081696,167.274597 168.999481,167.703156 
	C168.790253,167.765732 168.636139,167.583221 168.528763,167.376434 
	C168.509537,167.339447 168.683701,167.202042 168.936279,167.017593 
z"/>
<path fill="#3D0404" opacity="1.000000" stroke="none" 
	d="
M92.504349,157.764862 
	C92.232208,156.890778 92.635117,156.074829 93.583374,156.087387 
	C105.590736,156.246338 117.613617,155.312042 129.898163,156.912872 
	C117.796188,158.295990 105.372589,157.322662 92.504349,157.764862 
z"/>
<path fill="#420503" opacity="1.000000" stroke="none" 
	d="
M144.553406,184.206421 
	C147.026184,185.727737 145.999741,188.399551 145.922668,190.692398 
	C145.766083,195.350601 146.947937,200.098282 144.844513,204.806763 
	C144.475952,198.168076 144.453827,191.392670 144.553406,184.206421 
z"/>
<path fill="#420503" opacity="1.000000" stroke="none" 
	d="
M144.494202,172.125458 
	C147.044647,174.549973 146.106598,177.616241 145.034332,180.945892 
	C144.095718,178.333450 144.142197,175.415359 144.494202,172.125458 
z"/>
<path fill="#400602" opacity="1.000000" stroke="none" 
	d="
M180.188843,157.351501 
	C180.857513,155.788437 182.199753,155.642090 183.965454,156.950211 
	C183.010986,157.305206 181.823181,157.352188 180.188843,157.351501 
z"/>
<path fill="#FBF9F8" opacity="1.000000" stroke="none" 
	d="
M169.203278,125.910965 
	C162.403351,115.993286 160.714783,105.300270 161.990341,93.469315 
	C163.755417,86.851364 165.355408,80.610458 170.090195,75.446259 
	C174.759140,70.981522 179.742294,68.159660 186.594406,69.841125 
	C187.158112,69.770370 187.339462,69.717117 187.764221,69.809280 
	C188.007614,69.954681 187.907684,70.002991 187.918213,70.057503 
	C196.527512,75.404488 201.465973,82.948822 202.090363,93.565781 
	C201.855637,94.087799 201.628098,94.186836 201.049438,94.164841 
	C198.798279,92.242676 198.503174,89.603165 197.256775,87.454178 
	C192.920410,79.977539 185.323212,79.508698 180.297958,86.446175 
	C175.084656,93.643257 174.783447,106.623840 179.659439,113.963783 
	C184.676117,121.515503 192.534592,121.323425 197.264618,113.535217 
	C198.383606,111.692757 199.031693,109.568542 200.909988,107.805939 
	C201.483383,107.622726 201.731674,107.619553 202.290833,107.821556 
	C201.956085,113.571083 200.184418,118.718834 197.071503,123.363983 
	C192.988602,129.456528 187.653229,133.158020 179.484344,132.172974 
	C178.607254,132.109390 178.161606,131.994507 177.372360,131.889832 
	C173.215164,131.715073 170.818085,129.591492 169.203278,125.910965 
z"/>
<path fill="#6F2F26" opacity="1.000000" stroke="none" 
	d="
M203.333664,150.972260 
	C202.961212,149.490067 201.724915,149.373840 200.770721,148.740952 
	C194.669449,144.694138 188.604431,140.561111 185.002441,133.487381 
	C191.351883,133.069565 197.708466,133.009995 204.531067,133.000397 
	C205.080902,139.656845 211.068649,141.836273 214.695206,145.728714 
	C216.096848,147.233124 218.171112,148.117859 218.966629,150.602264 
	C215.973724,150.956696 212.940933,150.971466 209.454041,150.974686 
	C207.940308,149.902527 206.764877,149.771271 205.239563,150.743042 
	C204.555527,150.968796 204.111176,150.976120 203.333664,150.972260 
z"/>
<path fill="#F2EDE6" opacity="1.000000" stroke="none" 
	d="
M200.847290,94.292664 
	C201.151382,93.985268 201.617203,93.984215 201.850189,93.986496 
	C204.289871,98.303642 202.918030,102.842216 202.758331,107.660980 
	C202.354782,108.029213 202.107895,108.031700 201.490936,108.019745 
	C199.468231,103.599808 200.607162,99.074013 200.847290,94.292664 
z"/>
<path fill="#6B2920" opacity="1.000000" stroke="none" 
	d="
M79.000000,204.539719 
	C79.359306,207.489075 78.455978,209.805283 78.008163,212.586548 
	C76.401161,214.039169 74.607712,214.107315 72.391754,214.014160 
	C69.424622,212.630478 67.630424,210.335571 65.240860,208.229797 
	C63.218697,199.127213 63.994423,190.194656 64.407166,181.273956 
	C64.475426,179.798706 64.768356,178.333878 64.958664,176.429901 
	C68.989395,176.697205 68.046463,179.404739 67.496498,182.070038 
	C66.923096,184.848984 66.210594,188.013840 70.982246,185.647598 
	C73.320107,184.488251 74.020004,185.660904 73.973808,187.733887 
	C73.924606,189.941803 74.470161,191.534698 76.906143,192.175842 
	C79.206161,192.781219 78.993256,194.834076 78.997635,196.654816 
	C79.003586,199.129669 78.999680,201.604568 79.000000,204.539719 
z"/>
<path fill="#4F1409" opacity="1.000000" stroke="none" 
	d="
M150.414307,86.640106 
	C148.740143,84.150978 147.600861,81.172615 145.877518,78.582901 
	C141.161011,71.495247 134.838715,67.767693 125.634384,70.137924 
	C114.827400,70.113426 104.402489,69.907387 93.980194,69.999092 
	C89.284119,70.040405 85.994865,72.811813 83.342804,76.907257 
	C81.699905,72.568367 82.128952,68.139374 83.851349,63.416500 
	C93.385010,63.399506 102.752945,62.182518 112.562073,63.010498 
	C113.991684,62.183140 115.071289,61.933529 116.638344,62.751877 
	C117.750351,63.009007 118.500168,63.014095 119.624840,63.011871 
	C123.030609,63.010399 126.061523,63.016235 129.546524,63.010960 
	C134.812286,63.012100 139.624252,63.062408 144.435547,63.025352 
	C148.796890,62.991760 151.336426,64.489601 151.032852,69.452515 
	C150.689621,75.063881 150.780579,80.701805 150.414307,86.640106 
z"/>
<path fill="#69251B" opacity="1.000000" stroke="none" 
	d="
M82.849785,77.201828 
	C82.931427,78.203789 82.725174,79.348732 82.307632,80.769073 
	C80.235840,79.557610 81.958771,78.521667 82.849785,77.201828 
z"/>
<path fill="#703027" opacity="1.000000" stroke="none" 
	d="
M116.939499,62.657013 
	C115.933594,63.008404 114.866646,63.012897 113.399651,63.010109 
	C113.839493,60.235039 115.189224,60.322010 116.939499,62.657013 
z"/>
<path fill="#420503" opacity="1.000000" stroke="none" 
	d="
M144.958008,211.070801 
	C144.997864,211.061035 145.089386,211.008652 145.037415,211.024933 
	C144.893936,211.093597 145.009674,211.028183 144.958008,211.070801 
z"/>
<path fill="#69291F" opacity="1.000000" stroke="none" 
	d="
M65.035965,208.348480 
	C68.637115,208.045120 69.522293,211.651474 71.949524,213.666763 
	C68.307083,214.041779 66.623207,211.454605 65.035965,208.348480 
z"/>
<path fill="#75382F" opacity="1.000000" stroke="none" 
	d="
M136.038254,46.354347 
	C140.219315,44.077198 144.697128,45.481503 149.485535,44.982597 
	C150.408432,44.771084 151.010971,44.608578 151.349182,44.911610 
	C157.764435,50.659454 164.732834,55.875683 169.176422,63.737030 
	C169.016281,67.414581 168.997543,70.757156 168.954773,74.557526 
	C166.176590,75.548813 163.863174,74.163765 162.247833,72.457863 
	C153.823486,63.561157 145.612747,54.463024 136.038254,46.354347 
z"/>
<path fill="#7A3D33" opacity="1.000000" stroke="none" 
	d="
M169.433533,63.996189 
	C163.602310,57.088493 156.725845,51.523552 150.249420,45.117802 
	C151.920639,41.436302 150.611511,37.587521 151.019714,33.447208 
	C155.745087,34.061409 158.230759,38.090271 161.434326,41.053192 
	C167.040222,46.237968 172.260345,51.837658 177.725739,57.177902 
	C179.294006,58.710247 180.318939,60.168556 179.027374,62.679161 
	C175.930740,63.232018 172.780960,62.546856 169.433533,63.996189 
z"/>
<path fill="#6D2E25" opacity="1.000000" stroke="none" 
	d="
M205.399719,150.975800 
	C205.853012,148.243698 207.203308,148.353683 208.936493,150.621857 
	C207.933167,150.972153 206.866379,150.981140 205.399719,150.975800 
z"/>
<path fill="#773217" opacity="1.000000" stroke="none" 
	d="
M187.935898,69.783325 
	C187.828247,69.992798 187.648895,70.030914 187.223145,69.946320 
	C187.272583,69.753067 187.568375,69.682526 187.935898,69.783325 
z"/>
<path fill="#69291F" opacity="1.000000" stroke="none" 
	d="
M81.467743,207.450592 
	C81.522446,207.417999 81.413040,207.483170 81.467743,207.450592 
z"/>
<path fill="#54190F" opacity="1.000000" stroke="none" 
	d="
M169.070084,126.020493 
	C171.618103,127.481598 173.456757,130.257416 176.788345,131.673843 
	C170.851471,134.510483 169.008148,133.259033 169.070084,126.020493 
z"/>
<path fill="#E1D8D8" opacity="1.000000" stroke="none" 
	d="
M151.834167,106.790833 
	C151.349457,107.049873 151.008194,107.048637 150.410873,107.035454 
	C147.379013,103.065010 148.164291,98.888855 149.754501,94.334061 
	C150.344666,93.970680 150.580994,93.958366 151.172363,93.948647 
	C151.712967,94.769287 151.898529,95.587326 152.162476,96.715912 
	C152.401428,97.439346 152.477600,97.866425 152.394226,98.632919 
	C152.296936,99.732445 152.262161,100.508881 152.285889,101.670471 
	C152.546295,103.106110 152.484833,104.165131 152.317902,105.599197 
	C152.118484,106.160179 152.048050,106.345367 151.834167,106.790833 
z"/>
<path fill="#73362E" opacity="1.000000" stroke="none" 
	d="
M152.409027,105.756653 
	C152.187119,104.925758 152.185333,103.876526 152.263977,102.441452 
	C153.249176,103.150299 153.163681,104.325943 152.409027,105.756653 
z"/>
<path fill="#73362E" opacity="1.000000" stroke="none" 
	d="
M152.501678,98.792404 
	C152.267395,98.527824 152.203064,98.099648 152.189789,97.348969 
	C152.834671,97.439537 153.073837,97.947960 152.501678,98.792404 
z"/>
<path fill="#221418" opacity="1.000000" stroke="none" 
	d="
M149.985504,93.635971 
	C150.418564,98.018990 151.110428,102.055061 150.130142,106.557121 
	C148.892303,110.605385 147.908493,114.299637 145.211456,117.211502 
	C140.378494,122.429420 133.884186,122.449310 129.102493,117.182167 
	C121.874306,109.220139 121.851646,92.228226 129.058548,84.209389 
	C134.006882,78.703560 140.573196,78.784683 145.451553,84.420441 
	C147.681122,86.996155 148.918427,90.071022 149.985504,93.635971 
z"/>
<path fill="#221419" opacity="1.000000" stroke="none" 
	d="
M201.046661,93.627151 
	C201.932297,98.388969 202.263321,102.790199 201.099762,107.594185 
	C199.834488,111.234200 198.725342,114.541428 196.259247,117.161781 
	C191.519302,122.198242 185.321960,122.268639 180.575439,117.282974 
	C173.079758,109.409622 172.957977,92.168045 180.340942,84.088577 
	C185.187149,78.785179 191.488190,78.788094 196.350525,84.052147 
	C198.785583,86.688377 199.929810,89.938919 201.046661,93.627151 
z"/>
</svg>